<?xml version="1.0" encoding="UTF-8"?>
<svg xmlns="http://www.w3.org/2000/svg" xmlns:xlink="http://www.w3.org/1999/xlink" width="16pt" height="16pt" viewBox="0 0 16 16" version="1.1">
<g id="surface1">
<path style=" stroke:none;fill-rule:nonzero;fill:rgb(92.54902%,93.72549%,94.509804%);fill-opacity:1;" d="M 2 2 L 14 2 L 14 14 L 2 14 Z M 2 2 "/>
<path style=" stroke:none;fill-rule:nonzero;fill:rgb(81.176471%,84.705882%,86.27451%);fill-opacity:1;" d="M 8 9.261719 L 14 14 L 14 4.644531 Z M 8 9.261719 "/>
<path style=" stroke:none;fill-rule:nonzero;fill:rgb(95.686275%,26.27451%,21.176471%);fill-opacity:1;" d="M 14.5 2 L 14 2 L 8 6.738281 L 2 2 L 1.5 2 C 0.671875 2 0 2.671875 0 3.5 L 0 12.5 C 0 13.328125 0.671875 14 1.5 14 L 2 14 L 2 4.644531 L 8 9.261719 L 14 4.644531 L 14 14 L 14.5 14 C 15.328125 14 16 13.328125 16 12.5 L 16 3.5 C 16 2.671875 15.328125 2 14.5 2 Z M 14.5 2 "/>
</g>
</svg>
