<?xml version="1.0" encoding="UTF-8"?>
<svg xmlns="http://www.w3.org/2000/svg" xmlns:xlink="http://www.w3.org/1999/xlink" width="16pt" height="16pt" viewBox="0 0 16 16" version="1.1">
<defs>
<linearGradient id="linear0" gradientUnits="userSpaceOnUse" x1="-46.0041" y1="634.1208" x2="-32.9334" y2="647.1917" gradientTransform="matrix(1,0,0,-1,47.46875,648.65625)">
<stop offset="0" style="stop-color:rgb(100%,75.686275%,2.745098%);stop-opacity:1;"/>
<stop offset="0.507" style="stop-color:rgb(95.686275%,26.27451%,21.176471%);stop-opacity:1;"/>
<stop offset="0.99" style="stop-color:rgb(61.176471%,15.294118%,69.019608%);stop-opacity:1;"/>
</linearGradient>
<linearGradient id="linear1" gradientUnits="userSpaceOnUse" x1="-42.2971" y1="637.8279" x2="-36.6404" y2="643.4846" gradientTransform="matrix(1,0,0,-1,47.46875,648.65625)">
<stop offset="0" style="stop-color:rgb(100%,75.686275%,2.745098%);stop-opacity:1;"/>
<stop offset="0.507" style="stop-color:rgb(95.686275%,26.27451%,21.176471%);stop-opacity:1;"/>
<stop offset="0.99" style="stop-color:rgb(61.176471%,15.294118%,69.019608%);stop-opacity:1;"/>
</linearGradient>
<linearGradient id="linear2" gradientUnits="userSpaceOnUse" x1="-35.5456" y1="644.5793" x2="-34.7919" y2="645.3331" gradientTransform="matrix(1,0,0,-1,47.46875,648.65625)">
<stop offset="0" style="stop-color:rgb(100%,75.686275%,2.745098%);stop-opacity:1;"/>
<stop offset="0.507" style="stop-color:rgb(95.686275%,26.27451%,21.176471%);stop-opacity:1;"/>
<stop offset="0.99" style="stop-color:rgb(61.176471%,15.294118%,69.019608%);stop-opacity:1;"/>
</linearGradient>
</defs>
<g id="surface1">
<path style=" stroke:none;fill-rule:nonzero;fill:url(#linear0);" d="M 11 0 L 5 0 C 2.238281 0 0 2.238281 0 5 L 0 11 C 0 13.761719 2.238281 16 5 16 L 11 16 C 13.761719 16 16 13.761719 16 11 L 16 5 C 16 2.238281 13.761719 0 11 0 Z M 14.5 11 C 14.5 12.929688 12.929688 14.5 11 14.5 L 5 14.5 C 3.070312 14.5 1.5 12.929688 1.5 11 L 1.5 5 C 1.5 3.070312 3.070312 1.5 5 1.5 L 11 1.5 C 12.929688 1.5 14.5 3.070312 14.5 5 Z M 14.5 11 "/>
<path style=" stroke:none;fill-rule:nonzero;fill:url(#linear1);" d="M 8 4 C 5.789062 4 4 5.789062 4 8 C 4 10.210938 5.789062 12 8 12 C 10.210938 12 12 10.210938 12 8 C 12 5.789062 10.210938 4 8 4 Z M 8 10.5 C 6.621094 10.5 5.5 9.378906 5.5 8 C 5.5 6.621094 6.621094 5.5 8 5.5 C 9.378906 5.5 10.5 6.621094 10.5 8 C 10.5 9.378906 9.378906 10.5 8 10.5 Z M 8 10.5 "/>
<path style=" stroke:none;fill-rule:nonzero;fill:url(#linear2);" d="M 12.832031 3.699219 C 12.832031 3.996094 12.59375 4.234375 12.300781 4.234375 C 12.003906 4.234375 11.765625 3.996094 11.765625 3.699219 C 11.765625 3.40625 12.003906 3.167969 12.300781 3.167969 C 12.59375 3.167969 12.832031 3.40625 12.832031 3.699219 Z M 12.832031 3.699219 "/>
</g>
</svg>
